<?xml version="1.0" encoding="utf-8"?>
<!-- Generator: Adobe Illustrator 16.0.0, SVG Export Plug-In . SVG Version: 6.00 Build 0)  -->
<!DOCTYPE svg PUBLIC "-//W3C//DTD SVG 1.1//EN" "http://www.w3.org/Graphics/SVG/1.1/DTD/svg11.dtd">
<svg version="1.1" id="Layer_1" xmlns="http://www.w3.org/2000/svg" xmlns:xlink="http://www.w3.org/1999/xlink" x="0px" y="0px"
	 width="650px" height="350px" viewBox="0 0 650 350" style="enable-background:new 0 0 650 350;" xml:space="preserve">
<style type="text/css">

	.st61{
		stroke-dasharray: 800;
		stroke-dashoffset: 0;
		-webkit-animation: lines 4s linear forwards;
		animation: lines 4s linear forwards;
	}

	.st73{
		stroke-dasharray: 50;
		stroke-dashoffset: 0;
		-webkit-animation: circ 4s linear forwards;
		animation: circ 4s linear forwards;
	}


	.st42{
		stroke-dasharray: 50;
		stroke-dashoffset: 0;
		-webkit-animation: circ2 4s linear forwards;
		animation: circ2 4s linear forwards;
	}

	.st50{
		stroke-dasharray: 200;
		stroke-dashoffset: 0;
		-webkit-animation: circ3 2s linear forwards;
		animation: circ3 2s linear forwards;

	}

	.st66, .st85, .st67{
		-webkit-animation: circ4 2s ease-in forwards;
		animation: circ4 2s ease-in forwards;

	}

	.st28{
		stroke-dasharray: 50;
		stroke-dashoffset: 0;
		-webkit-animation: check 2.5s linear forwards;
		animation: check 2.5s linear forwards;
	}

	.st29{
		stroke-dasharray: 800;
		stroke-dashoffset: 0;
		-webkit-animation: shades 3s linear forwards;
		animation: shades 3s linear forwards;
	}

	.st26, .st53, .st74, .st18, .st52, .st75{
		stroke-dasharray: 50;
		stroke-dashoffset: 0;
		-webkit-animation: horizontal 4s linear forwards;
		animation: horizontal 4s linear forwards;
	}

	.st76{
		-webkit-animation: text 4s ease-in forwards;
		animation: text 4s ease-in forwards;
	}



	@-webkit-keyframes text{
		0%{fill:transparent;}
		100%{fill:#78909C;}

	}

	@-webkit-keyframes check{
		0%{stroke-dashoffset: 50;}
		100%{stroke-dashoffset: 0;}

	}

	@-webkit-keyframes horizontal{
		0%{stroke-dashoffset: 50;}
		100%{stroke-dashoffset: 0;}

	}

	@-webkit-keyframes circ4{
		0%{opacity:0;}
		100%{opacity:1;}

	}


	@-webkit-keyframes circ3{
		0%{stroke-dashoffset: 200; fill: transparent;}
		100%{stroke-dashoffset: 0; fill: #1DE9B6;}

	}


	@-webkit-keyframes circ2{
		0%{stroke-dashoffset: 50; fill: transparent;}
		100%{stroke-dashoffset: 0; fill: #7C4DFF;}

	}

	@-webkit-keyframes circ{
		0%{stroke-dashoffset: 50; fill: transparent;}
		100%{stroke-dashoffset: 0; fill: #1DE9B6;}

	}

	@-webkit-keyframes lines{
		0%{stroke-dashoffset: 800;}
		100%{stroke-dashoffset: 0;}

	}

	@-webkit-keyframes shades{
		0%{stroke-dashoffset: 800; fill:transparent;}
		100%{stroke-dashoffset: 0; fill: #78909C;}

	}

	.st0{display:inline;fill:#EEEEEE;stroke:#EEEEEE;stroke-miterlimit:10;}
	.st1{display:inline;fill:none;stroke:#1DE9B6;stroke-width:2;stroke-miterlimit:10;}
	.st2{display:inline;fill:#18FFFF;}
	.st3{display:inline;fill:#80D8FF;}
	.st4{display:inline;fill:#B0BEC5;}
	.st5{display:inline;fill:none;stroke:#FFFFFF;stroke-width:2;stroke-miterlimit:10;}
	.st6{display:inline;fill:#78909C;stroke:#78909C;stroke-width:0.5;stroke-miterlimit:10;}
	.st7{display:inline;fill:none;stroke:#FCFCFC;stroke-width:5;stroke-miterlimit:10;}
	.st8{display:inline;fill:#EA80FC;}
	.st9{display:inline;fill:#EEEEEE;stroke:#1DE9B6;stroke-width:2;stroke-miterlimit:10;}
	.st10{display:inline;fill:#1DE9B6;}
	.st11{display:inline;fill:#ECEFF1;}
	.st12{display:inline;fill:#B9F6CA;}
	.st13{display:inline;fill:#EEEEEE;}
	.st14{display:inline;fill:none;stroke:#03A9F4;stroke-width:4;stroke-miterlimit:10;}
	.st15{display:inline;fill:#FF4081;stroke:#FF4081;stroke-width:2;stroke-miterlimit:10;}
	.st16{display:inline;fill:#EEEEEE;stroke:#FFFFFF;stroke-width:2;stroke-miterlimit:10;}
	.st17{display:inline;fill:#78909C;stroke:#78909C;stroke-width:2;stroke-miterlimit:10;}
	.st18{fill:none;stroke:#D6D6D6;stroke-width:2;stroke-miterlimit:10;}
	.st19{display:inline;fill:none;stroke:#F5F5F5;stroke-width:2;stroke-miterlimit:10;}
	.st20{display:inline;fill:#64FFDA;stroke:#64FFDA;stroke-width:2;stroke-miterlimit:10;}
	.st21{fill:#EEEEEE;}
	.st22{display:inline;fill-rule:evenodd;clip-rule:evenodd;fill:#02A8F3;stroke:#02A8F3;stroke-width:2;stroke-miterlimit:10;}
	.st23{display:inline;fill:none;stroke:#78909C;stroke-width:2;stroke-miterlimit:10;}
	.st24{fill:none;stroke:#78909C;stroke-width:2;stroke-miterlimit:10;}
	.st25{display:inline;fill:none;stroke:#FCFCFC;stroke-width:4;stroke-miterlimit:10;}
	.st26{fill:none;stroke:#BBBBBB;stroke-width:2;stroke-miterlimit:10;}
	.st27{display:inline;fill:#7C4DFF;stroke:#78909C;stroke-width:2;stroke-miterlimit:10;}
	.st28{fill:none;stroke:#FCFCFC;stroke-width:4;stroke-miterlimit:10;}
	.st29{fill:#78909C;stroke:#78909C;stroke-width:2;stroke-miterlimit:10;}
	.st30{display:inline;fill:#EEEEEE;stroke:#B0BEC5;stroke-width:2;stroke-miterlimit:10;}
	.st31{display:inline;fill:none;stroke:#FF6E40;stroke-width:2;stroke-miterlimit:10;}
	.st32{display:inline;fill:#1DE9B6;stroke:#1DE9B6;stroke-width:2;stroke-miterlimit:10;}
	.st33{display:inline;fill:#FF6E40;}
	.st34{display:inline;fill:#EEEEEE;stroke:#C4C4C4;stroke-width:2;stroke-miterlimit:10;}
	.st35{display:inline;fill:#FFFF8D;}
	.st36{display:inline;fill:#FFFFFF;}
	.st37{display:inline;fill:#FF8A80;stroke:#FFCDD2;stroke-width:2;stroke-miterlimit:10;}

		.st38{display:inline;fill-rule:evenodd;clip-rule:evenodd;fill:none;stroke:#FF6E40;stroke-width:2;stroke-linecap:round;stroke-miterlimit:10;stroke-dasharray:1,5;}
	.st39{display:inline;fill:#02A8F3;stroke:#02A8F3;stroke-width:2;stroke-miterlimit:10;}
	.st40{display:inline;fill:#FFFFFF;stroke:#78909C;stroke-width:2;stroke-miterlimit:10;}
	.st41{display:inline;fill:#FAFAFA;stroke:#CFD8DC;stroke-width:2;stroke-miterlimit:10;}
	.st42{fill:#7C4DFF;stroke:#78909C;stroke-width:2;stroke-miterlimit:10;}
	.st43{fill:#FCFCFC;}
	.st44{display:inline;fill:#69F0AE;}
	.st45{display:inline;fill:#FAFAFA;stroke:#78909C;stroke-width:2;stroke-miterlimit:10;}
	.st46{fill:#FF8A80;}
	.st47{fill:#FFFFFF;}
	.st48{display:inline;fill:#CFD8DC;}
	.st49{display:inline;fill:none;stroke:#BBBBBB;stroke-width:2;stroke-miterlimit:10;stroke-dasharray:5,5;}
	.st50{fill:#1DE9B6;stroke:#1DE9B6;stroke-width:2;stroke-miterlimit:10;}
	.st51{display:inline;}
	.st52{fill:none;stroke:#82B1FF;stroke-width:2;stroke-miterlimit:10;}
	.st53{fill:none;stroke:#FF8A80;stroke-width:2;stroke-miterlimit:10;}
	.st54{display:inline;fill:#A7FFEB;stroke:#FFFFFF;stroke-width:2;stroke-miterlimit:10;}
	.st55{display:inline;fill:none;stroke:#FFFFFF;stroke-width:4;stroke-miterlimit:10;}
	.st56{display:inline;fill:#FFD740;stroke:#FFD740;stroke-width:2;stroke-miterlimit:10;}
	.st57{display:inline;fill:#FFE57F;stroke:#FFE57F;stroke-width:2;stroke-miterlimit:10;}
	.st58{display:inline;fill:#1DE9B6;stroke:#78909C;stroke-width:2;stroke-miterlimit:10;}
	.st59{display:inline;fill:none;stroke:#BDBDBD;stroke-width:2;stroke-miterlimit:10;stroke-dasharray:10,7;}
	.st60{fill:none;stroke:#FFFFFF;stroke-width:4;stroke-miterlimit:10;}
	.st61{fill:#FAFAFA;stroke:#78909C;stroke-width:2;stroke-miterlimit:10;}
	.st62{display:inline;fill:none;stroke:#FCFCFC;stroke-width:2;stroke-miterlimit:10;}
	.st63{display:inline;fill:#FF8A80;stroke:#FF8A80;stroke-miterlimit:10;}
	.st64{display:inline;fill:#EDEDED;stroke:#78909C;stroke-width:2;stroke-miterlimit:10;}
	.st65{display:inline;fill:#EDEDED;stroke:#EDEDED;stroke-width:2;stroke-miterlimit:10;}
	.st66{fill:#FF8A80;stroke:#FF8A80;stroke-miterlimit:10;}
	.st67{fill:#78909C;stroke:#78909C;stroke-width:0.5;stroke-miterlimit:10;}
	.st68{display:inline;fill:#78909C;}
	.st69{display:inline;fill:#A7FFEB;}
	.st70{display:inline;fill:#536DFE;stroke:#536DFE;stroke-width:2;stroke-miterlimit:10;}
	.st71{display:none;}
	.st72{display:inline;fill:none;stroke:#64FFDA;stroke-miterlimit:10;}
	.st73{fill:#1DE9B6;stroke:#78909C;stroke-width:2;stroke-miterlimit:10;}
	.st74{fill:#02A8F3;stroke:#64FFDA;stroke-width:2;stroke-miterlimit:10;}
	.st75{fill:none;stroke:#FF8A80;stroke-width:2;stroke-linecap:round;stroke-miterlimit:10;stroke-dasharray:1,5;}
	.st76{fill:#78909C;}
	.st77{fill:#DBDBDB;}
	.st78{display:inline;fill:none;stroke:#FFFFFF;stroke-miterlimit:10;}
	.st79{display:inline;fill:#7C4DFF;}
	.st80{fill:none;stroke:#FFFFFF;stroke-width:3;stroke-miterlimit:10;}
	.st81{display:inline;fill:#FDD835;stroke:#FDD835;stroke-miterlimit:10;}
	.st82{display:inline;fill:none;stroke:#7C4DFF;stroke-width:2;stroke-miterlimit:10;}
	.st83{display:inline;fill-rule:evenodd;clip-rule:evenodd;fill:#40C4FF;stroke:#40C4FF;stroke-width:2;stroke-miterlimit:10;}
	.st84{display:inline;fill:none;stroke:#FF8A80;stroke-width:2;stroke-linecap:round;stroke-miterlimit:10;stroke-dasharray:1,5;}
	.st85{fill:#FDD835;stroke:#FDD835;stroke-miterlimit:10;}
</style>
<g id="collaboration">
	<path class="st61" d="M424.735,230.203c0,1.783-1.653,3.227-3.691,3.227H271.937c-2.037,0-3.69-1.443-3.69-3.227V83.029
		c0-1.783,1.653-3.228,3.69-3.228h149.107c2.038,0,3.691,1.445,3.691,3.228V230.203z"/>
	<circle class="st66" cx="278.089" cy="90.629" r="2.953"/>
	<circle class="st85" cx="288.855" cy="90.629" r="2.953"/>
	<circle class="st67" cx="299.614" cy="90.629" r="2.953"/>
	<line class="st61" x1="268.246" y1="101.21" x2="424.735" y2="101.21"/>
	<circle class="st50" cx="424.735" cy="230.203" r="22.057"/>
	<path class="st61" d="M168.903,264.299c0,2.209-1.79,4-4,4H60.237c-2.209,0-4-1.791-4-4v-62.186c0-2.209,1.791-4,4-4h104.666
		c2.21,0,4,1.791,4,4V264.299z"/>
	<path class="st61" d="M168.903,275.211c0-0.504-1.79-0.912-4-0.912H60.237c-2.209,0-4,0.408-4,0.912l-4,12.18
		c0,0.504,1.791,0.912,4,0.912h112.666c2.21,0,4-0.408,4-0.912L168.903,275.211z"/>
	<rect x="56.237" y="205.934" class="st29" width="112.666" height="53.703"/>
	<circle class="st61" cx="111.539" cy="256.537" r="24.353"/>
	<path class="st61" d="M75.84,302.105c8.053-12.863,21.051-21.217,35.715-21.217c14.78,0,27.868,8.486,35.906,21.525"/>
	<line class="st26" x1="65.796" y1="215.625" x2="89.134" y2="215.625"/>
	<line class="st18" x1="65.796" y1="225.631" x2="104.384" y2="225.631"/>
	<line class="st74" x1="65.796" y1="235.637" x2="89.134" y2="235.637"/>
	<circle class="st76" cx="161.884" cy="255.678" r="1.25"/>
	<circle class="st76" cx="158.134" cy="255.678" r="1.25"/>
	<path class="st61" d="M168.903,103.47c0,2.209-1.79,4-4,4H60.237c-2.209,0-4-1.791-4-4V41.284c0-2.209,1.791-4,4-4h104.666
		c2.21,0,4,1.791,4,4V103.47z"/>
	<path class="st61" d="M168.903,114.382c0-0.504-1.79-0.912-4-0.912H60.237c-2.209,0-4,0.408-4,0.912l-4,12.18
		c0,0.504,1.791,0.912,4,0.912h112.666c2.21,0,4-0.408,4-0.912L168.903,114.382z"/>
	<rect x="56.237" y="45.104" class="st29" width="112.666" height="53.703"/>
	<circle class="st61" cx="111.539" cy="95.708" r="24.353"/>
	<path class="st61" d="M75.84,141.277c8.053-12.864,21.051-21.217,35.715-21.217c14.78,0,27.868,8.486,35.906,21.524"/>
	<line class="st26" x1="65.796" y1="54.796" x2="93.321" y2="54.796"/>
	<line class="st53" x1="65.796" y1="64.802" x2="104.384" y2="64.802"/>
	<line class="st74" x1="65.796" y1="74.808" x2="89.134" y2="74.808"/>
	<circle class="st46" cx="161.884" cy="102.85" r="1.25"/>
	<circle class="st76" cx="158.134" cy="102.85" r="1.25"/>
	<circle class="st46" cx="161.884" cy="263.445" r="1.25"/>
	<circle class="st76" cx="158.134" cy="263.445" r="1.25"/>
	<path class="st61" d="M618.37,204.875c0,2.209-1.789,4-4,4H509.704c-2.209,0-4-1.791-4-4v-62.186c0-2.209,1.791-4,4-4H614.37
		c2.211,0,4,1.791,4,4V204.875z"/>
	<path class="st61" d="M618.37,215.787c0-0.504-1.789-0.912-4-0.912H509.704c-2.209,0-4,0.408-4,0.912l-4,12.18
		c0,0.504,1.791,0.912,4,0.912H618.37c2.211,0,4-0.408,4-0.912L618.37,215.787z"/>
	<rect x="505.704" y="146.51" class="st29" width="112.666" height="53.703"/>
	<circle class="st61" cx="561.007" cy="197.113" r="24.354"/>
	<path class="st61" d="M525.308,242.684c8.053-12.865,21.051-21.217,35.716-21.217c14.78,0,27.868,8.486,35.906,21.523"/>
	<line class="st26" x1="515.265" y1="156.201" x2="538.602" y2="156.201"/>
	<line class="st52" x1="515.265" y1="166.207" x2="553.852" y2="166.207"/>
	<line class="st74" x1="515.265" y1="176.213" x2="523.425" y2="176.213"/>
	<circle class="st46" cx="611.352" cy="204.256" r="1.25"/>
	<circle class="st76" cx="607.602" cy="204.256" r="1.25"/>
	<line class="st24" x1="58.489" y1="280.889" x2="62.071" y2="280.889"/>
	<line class="st24" x1="64.989" y1="280.889" x2="68.571" y2="280.889"/>
	<polyline class="st28" points="412.96,230.342 419.849,237.23 433.905,223.176 	"/>
	<polyline class="st75" points="189.738,87.677 226.238,87.677 226.238,248.113 189.738,248.113 	"/>
	<line class="st75" x1="263.405" y1="179.113" x2="231.738" y2="179.113"/>
	<line class="st75" x1="501.704" y1="179.113" x2="427.905" y2="179.113"/>
	<circle class="st73" cx="294.009" cy="157.989" r="4.781"/>
	<circle class="st73" cx="330.165" cy="157.989" r="4.781"/>
	<circle class="st42" cx="349.214" cy="175.136" r="4.781"/>
	<circle class="st61" cx="366.321" cy="192.908" r="4.781"/>
	<line class="st61" x1="298.789" y1="157.988" x2="325.638" y2="157.989"/>
	<circle class="st73" cx="367.165" cy="157.989" r="4.781"/>
	<line class="st61" x1="335.79" y1="157.988" x2="362.638" y2="157.989"/>
	<circle class="st73" cx="404.499" cy="157.989" r="4.781"/>
	<line class="st61" x1="372.124" y1="157.988" x2="398.972" y2="157.989"/>
	<path class="st61" d="M302.976,157.988c0,0,4.787,5.458,4.845,10.638c0.062,5.427,3.266,6.387,6.061,6.497
		c1.22,0.048,28.922-0.065,29.69-0.04"/>
	<path class="st61" d="M395.611,157.988c0,0-4.787,5.458-4.845,10.638c-0.062,5.427-3.266,6.387-6.061,6.497
		c-1.22,0.048-28.922-0.065-29.69-0.04"/>
	<path class="st61" d="M321.226,175.761c0,0,4.787,5.459,4.845,10.639c0.062,5.426,3.266,6.387,6.061,6.496
		c1.22,0.049,28.922-0.064,29.69-0.039"/>
	<g>
		<path class="st76" d="M335.677,137.794c0,1.757-0.36,2.808-1.082,3.482c-0.753,0.674-1.819,0.91-2.776,0.91
			c-0.909,0-1.913-0.22-2.525-0.627l0.345-1.066c0.502,0.329,1.287,0.612,2.228,0.612c1.412,0,2.447-0.737,2.447-2.667v-0.831
			h-0.031c-0.408,0.706-1.239,1.271-2.416,1.271c-1.882,0-3.231-1.6-3.231-3.718c0-2.572,1.679-4.016,3.436-4.016
			c1.318,0,2.023,0.675,2.369,1.302h0.031l0.047-1.129h1.224c-0.048,0.533-0.063,1.145-0.063,2.07V137.794z M334.297,134.296
			c0-0.219-0.016-0.423-0.078-0.612c-0.251-0.815-0.91-1.474-1.93-1.474c-1.317,0-2.259,1.114-2.259,2.886
			c0,1.474,0.769,2.729,2.243,2.729c0.862,0,1.632-0.533,1.913-1.427c0.079-0.22,0.11-0.486,0.11-0.737V134.296z"/>
		<path class="st76" d="M338.606,129.92c-0.518,0-0.862-0.408-0.862-0.894s0.36-0.878,0.894-0.878s0.879,0.392,0.879,0.878
			s-0.346,0.894-0.895,0.894H338.606z M337.948,138.908v-7.592h1.38v7.592H337.948z"/>
		<path class="st76" d="M343.279,129.497v1.82h1.977v1.051h-1.977v4.094c0,0.941,0.267,1.475,1.035,1.475
			c0.377,0,0.597-0.031,0.8-0.094l0.063,1.051c-0.267,0.094-0.69,0.188-1.224,0.188c-0.644,0-1.161-0.219-1.49-0.58
			c-0.377-0.424-0.533-1.098-0.533-1.992v-4.141h-1.177v-1.051h1.177v-1.396L343.279,129.497z"/>
		<path class="st76" d="M346.808,127.771h1.38v4.737h0.031c0.22-0.392,0.564-0.753,0.988-0.973c0.408-0.251,0.895-0.392,1.412-0.392
			c1.02,0,2.65,0.627,2.65,3.247v4.518h-1.38v-4.361c0-1.239-0.455-2.259-1.757-2.259c-0.895,0-1.585,0.627-1.852,1.38
			c-0.078,0.188-0.094,0.392-0.094,0.659v4.58h-1.38V127.771z"/>
		<path class="st76" d="M361.862,136.838c0,0.784,0.016,1.474,0.063,2.07h-1.224l-0.078-1.239h-0.031
			c-0.346,0.612-1.161,1.412-2.51,1.412c-1.192,0-2.62-0.674-2.62-3.325v-4.439h1.381v4.188c0,1.443,0.455,2.431,1.694,2.431
			c0.925,0,1.568-0.643,1.819-1.271c0.078-0.188,0.125-0.439,0.125-0.706v-4.643h1.381V136.838z"/>
		<path class="st76" d="M364.149,127.771h1.38v4.753h0.031c0.486-0.847,1.365-1.38,2.589-1.38c1.882,0,3.199,1.569,3.199,3.859
			c0,2.729-1.726,4.078-3.419,4.078c-1.099,0-1.961-0.423-2.542-1.427h-0.031l-0.078,1.255h-1.192
			c0.048-0.518,0.063-1.286,0.063-1.961V127.771z M365.529,135.865c0,0.172,0.016,0.345,0.047,0.502
			c0.267,0.957,1.083,1.616,2.071,1.616c1.458,0,2.306-1.177,2.306-2.918c0-1.537-0.784-2.839-2.259-2.839
			c-0.941,0-1.82,0.659-2.087,1.694c-0.047,0.173-0.078,0.361-0.078,0.581V135.865z"/>
	</g>
</g>
</svg>
