<?xml version="1.0" encoding="utf-8"?>
<!-- Generator: Adobe Illustrator 16.0.0, SVG Export Plug-In . SVG Version: 6.00 Build 0)  -->
<!DOCTYPE svg PUBLIC "-//W3C//DTD SVG 1.1//EN" "http://www.w3.org/Graphics/SVG/1.1/DTD/svg11.dtd">
<svg version="1.1" xmlns="http://www.w3.org/2000/svg" xmlns:xlink="http://www.w3.org/1999/xlink" x="0px" y="0px"
	 width="111.667px" height="112px" viewBox="0 0 111.667 112" enable-background="new 0 0 111.667 112" xml:space="preserve">
<g id="deployment" display="none">
	<circle display="inline" fill="none" stroke="#FBFBFB" stroke-width="1.5" stroke-miterlimit="10" cx="55.86" cy="56.177" r="54"/>
	<path display="inline" fill="none" stroke="#FCFCFC" stroke-width="1.5" stroke-miterlimit="10" d="M68.633,49.371"/>
	
		<line display="inline" fill="none" stroke="#FCFCFC" stroke-width="1.5" stroke-miterlimit="10" x1="80.754" y1="52.511" x2="77.197" y2="53.436"/>
	
		<line display="inline" fill="none" stroke="#FCFCFC" stroke-width="1.5" stroke-miterlimit="10" x1="65.903" y1="76.925" x2="67.182" y2="79.979"/>
	
		<line display="inline" fill="none" stroke="#FCFCFC" stroke-width="1.5" stroke-miterlimit="10" x1="25.279" y1="39.076" x2="67.986" y2="39.076"/>
	<circle display="inline" fill="#49B6D3" cx="29.02" cy="34.974" r="1.142"/>
	<circle display="inline" fill="#49B6D3" cx="33.486" cy="34.974" r="1.142"/>
	<circle display="inline" fill="#49B6D3" cx="37.954" cy="34.974" r="1.142"/>
	<path display="inline" fill="none" stroke="#FCFCFC" stroke-width="1.5" stroke-miterlimit="10" d="M58.555,70.45H26.403
		c-0.62,0-1.124-0.501-1.124-1.122V32.426c0-0.62,0.502-1.122,1.124-1.122h40.379c0.621,0,1.123,0.502,1.123,1.122v20.792"/>
	<polyline display="inline" fill="none" stroke="#49B6D3" stroke-width="1.5" stroke-miterlimit="10" points="42.584,57.621 
		38.981,55.538 35.376,53.457 38.981,51.377 42.584,49.294 	"/>
	<g display="inline">
		<g>
			<path fill="none" stroke="#FCFCFC" stroke-width="1.5" stroke-miterlimit="10" d="M71.764,81.04
				c1.355,0.05,2.689-0.098,3.967-0.421"/>
			<path fill="none" stroke="#FCFCFC" stroke-width="1.5" stroke-miterlimit="10" stroke-dasharray="8.9516,4.4758" d="
				M79.83,78.859c2.982-1.882,5.271-4.873,6.188-8.565c1.176-4.725-0.17-9.486-3.186-12.864"/>
			<path fill="none" stroke="#FCFCFC" stroke-width="1.5" stroke-miterlimit="10" d="M81.219,55.886
				c-1.02-0.831-2.166-1.528-3.418-2.058l0.924,4.746"/>
		</g>
	</g>
	<path display="inline" fill="none" stroke="#FCFCFC" stroke-width="1.5" stroke-miterlimit="10" d="M63.233,80.803l3.219-1.005
		c-6.138-2.752-9.615-9.584-7.936-16.342c1.644-6.611,7.683-10.975,14.229-10.749"/>
	<polyline display="inline" fill="none" stroke="#49B6D3" stroke-width="1.5" stroke-miterlimit="10" points="49.196,57.621 
		52.799,55.538 56.405,53.457 52.799,51.377 49.196,49.294 	"/>
	
		<line display="inline" fill="none" stroke="#49B6D3" stroke-width="1.5" stroke-miterlimit="10" x1="44.243" y1="58.653" x2="47.092" y2="47.941"/>
	<rect id="_x3C_Slice_x3E__1_" x="-21.527" y="-22.002" display="inline" fill="none" width="157.193" height="156"/>
</g>
<g id="colloboration" display="none">
	
		<circle display="inline" fill="none" stroke="#FCFCFC" stroke-width="1.5" stroke-miterlimit="10" cx="56.143" cy="56.177" r="54"/>
	<path display="inline" fill="none" stroke="#FCFCFC" stroke-width="1.5" stroke-miterlimit="10" stroke-dasharray="4,4" d="
		M81.366,39.4c-1.319,2.602-5.699,5.253-9.763,3.188c-3.575-1.816-5.003-6.188-3.187-9.765c1.816-3.575,6.189-5.003,9.766-3.186
		C81.756,31.454,83.183,35.826,81.366,39.4z"/>
	
		<circle display="inline" fill="none" stroke="#FCFCFC" stroke-width="1.5" stroke-miterlimit="10" cx="72.354" cy="66.038" r="5.091"/>
	<path display="inline" fill="none" stroke="#FCFCFC" stroke-width="1.5" stroke-miterlimit="10" d="M70.188,34.634"/>
	<path display="inline" fill="none" stroke="#FCFCFC" stroke-width="1.5" stroke-miterlimit="10" d="M47.767,36.729"/>
	<path display="inline" fill="none" stroke="#FCFCFC" stroke-width="1.5" stroke-miterlimit="10" d="M75.75,62.248"/>
	<path display="inline" fill="none" stroke="#FCFCFC" stroke-width="1.5" stroke-miterlimit="10" d="M78.657,42.376"/>
	
		<line display="inline" fill="none" stroke="#FCFCFC" stroke-width="1.5" stroke-miterlimit="10" x1="52.853" y1="62.452" x2="49.198" y2="71.777"/>
	
		<line display="inline" fill="none" stroke="#FCFCFC" stroke-width="1.5" stroke-miterlimit="10" x1="42.52" y1="41.292" x2="49.594" y2="47.938"/>
	
		<line display="inline" fill="none" stroke="#FCFCFC" stroke-width="1.5" stroke-miterlimit="10" x1="63.34" y1="59.332" x2="68.216" y2="63.072"/>
	
		<line display="inline" fill="none" stroke="#FCFCFC" stroke-width="1.5" stroke-miterlimit="10" x1="70.188" y1="41.292" x2="62.493" y2="48.479"/>
	
		<circle display="inline" fill="none" stroke="#FCFCFC" stroke-width="1.5" stroke-miterlimit="10" cx="74.773" cy="34.744" r="1.301"/>
	<path display="inline" fill="none" stroke="#FCFCFC" stroke-width="1.5" stroke-miterlimit="10" d="M72.354,38.88v-0.73
		c0-1.134,0.918-2.054,2.053-2.054h0.73c1.135,0,2.055,0.92,2.055,2.054v0.73"/>
	
		<circle display="inline" fill="none" stroke="#FCFCFC" stroke-width="1.5" stroke-miterlimit="10" cx="72.393" cy="64.613" r="1.131"/>
	<path display="inline" fill="none" stroke="#FCFCFC" stroke-width="1.5" stroke-miterlimit="10" d="M70.29,68.212v-0.637
		c0-0.986,0.8-1.786,1.787-1.786h0.635c0.987,0,1.787,0.8,1.787,1.786v0.637"/>
	
		<circle display="inline" fill="none" stroke="#FCFCFC" stroke-width="1.5" stroke-miterlimit="10" cx="34.236" cy="64.081" r="4.104"/>
	
		<circle display="inline" fill="none" stroke="#FCFCFC" stroke-width="1.5" stroke-miterlimit="10" cx="34.27" cy="63.136" r="0.913"/>
	<path display="inline" fill="none" stroke="#FCFCFC" stroke-width="1.5" stroke-miterlimit="10" d="M32.573,66.039v-0.514
		c0-0.796,0.645-1.439,1.441-1.439h0.512c0.795,0,1.439,0.644,1.439,1.439v0.514"/>
	<path display="inline" fill="none" stroke="#49B6D3" stroke-width="1.5" stroke-miterlimit="10" d="M46.944,70.978
		c-3.459,0-6.264,2.804-6.264,6.262c0,3.46,2.805,6.265,6.264,6.265s6.264-2.805,6.264-6.265
		C53.208,73.781,50.403,70.978,46.944,70.978z M47,74.187c0.719,0,1.302,0.58,1.302,1.3c0,0.718-0.583,1.301-1.302,1.301
		c-0.718,0-1.3-0.581-1.3-1.301C45.701,74.77,46.283,74.187,47,74.187z M44.583,78.893c0-1.135,0.92-2.055,2.053-2.055h0.731
		c1.134,0,2.054,0.92,2.054,2.055"/>
	
		<circle display="inline" fill="none" stroke="#49B6D3" stroke-width="1.5" stroke-miterlimit="10" cx="56.135" cy="54.083" r="8.758"/>
	
		<circle display="inline" fill="none" stroke="#49B6D3" stroke-width="1.5" stroke-miterlimit="10" cx="56.192" cy="52.329" r="1.3"/>
	<path display="inline" fill="none" stroke="#49B6D3" stroke-width="1.5" stroke-miterlimit="10" d="M53.774,56.465v-0.729
		c0-1.134,0.919-2.055,2.053-2.055h0.73c1.135,0,2.055,0.921,2.055,2.055v0.729"/>
	<path display="inline" fill="none" stroke="#FCFCFC" stroke-width="1.5" stroke-miterlimit="10" d="M40.68,34.086
		c-2.211,0-4.004,1.764-4.004,3.937c0,2.174,1.793,3.936,4.004,3.936s4.004-1.762,4.004-3.936
		C44.684,35.85,42.891,34.086,40.68,34.086z M40.698,35.912c0.541,0,0.98,0.432,0.98,0.963s-0.439,0.962-0.98,0.962
		c-0.54,0-0.979-0.431-0.979-0.962S40.158,35.912,40.698,35.912z M38.877,39.938v-0.542c0-0.839,0.692-1.52,1.546-1.52h0.55
		c0.854,0,1.546,0.681,1.546,1.52v0.542"/>
	
		<line display="inline" fill="none" stroke="#FCFCFC" stroke-width="1.5" stroke-miterlimit="10" x1="48.393" y1="58.179" x2="38.176" y2="63.341"/>
	<rect id="_x3C_Slice_x3E__2_" x="-24.527" y="-22.002" display="inline" fill="none" width="157.193" height="156"/>
</g>
<g id="proxyrules" display="none">
	<circle display="inline" fill="none" stroke="#FCFCFC" stroke-width="1.5" stroke-miterlimit="10" cx="55.93" cy="56.177" r="54"/>
	<path display="inline" fill="none" stroke="#FCFCFC" stroke-width="1.5" stroke-miterlimit="10" d="M81.722,56.417"/>
	
		<line display="inline" fill="none" stroke="#FCFCFC" stroke-width="1.5" stroke-miterlimit="10" x1="27.378" y1="43.512" x2="80.913" y2="43.512"/>
	<circle display="inline" fill="#49B6D3" cx="32.067" cy="38.373" r="1.432"/>
	<circle display="inline" fill="#49B6D3" cx="37.665" cy="38.373" r="1.432"/>
	<circle display="inline" fill="#49B6D3" cx="43.266" cy="38.373" r="1.432"/>
	<path display="inline" fill="none" stroke="#FCFCFC" stroke-width="1.5" stroke-miterlimit="10" d="M78.87,78.584H50.29H28.785
		c-0.777,0-1.407-0.629-1.407-1.407v-42c0-0.777,0.63-1.407,1.407-1.407h50.62c0.777,0,1.406,0.63,1.406,1.407v41.516
		c0,0,0.018,0.663-0.583,1.22C79.512,78.577,78.87,78.584,78.87,78.584z"/>
	<path display="inline" fill="none" stroke="#FCFCFC" stroke-width="1.5" stroke-miterlimit="10" d="M84.483,64.754"/>
	
		<circle display="inline" fill="none" stroke="#49B6D3" stroke-width="1.5" stroke-miterlimit="10" cx="57.463" cy="59.722" r="8.995"/>
	
		<ellipse display="inline" fill="none" stroke="#49B6D3" stroke-width="1.5" stroke-miterlimit="10" cx="57.463" cy="59.722" rx="3.912" ry="8.916"/>
	
		<line display="inline" fill="none" stroke="#49B6D3" stroke-width="1.5" stroke-miterlimit="10" x1="49.923" y1="64.626" x2="65.002" y2="64.626"/>
	
		<line display="inline" fill="none" stroke="#49B6D3" stroke-width="1.5" stroke-miterlimit="10" x1="49.223" y1="55.496" x2="65.405" y2="55.496"/>
	
		<line display="inline" fill="none" stroke="#49B6D3" stroke-width="1.5" stroke-miterlimit="10" x1="48.467" y1="60.092" x2="66.161" y2="60.092"/>
	
		<line display="inline" fill="none" stroke="#49B6D3" stroke-width="1.5" stroke-miterlimit="10" x1="37.3" y1="55.855" x2="47.09" y2="55.855"/>
	
		<line display="inline" fill="none" stroke="#FCFCFC" stroke-width="1.5" stroke-miterlimit="10" x1="40.291" y1="59.721" x2="44.747" y2="59.721"/>
	
		<line display="inline" fill="none" stroke="#FCFCFC" stroke-width="1.5" stroke-miterlimit="10" x1="33.972" y1="63.407" x2="47.117" y2="63.407"/>
</g>
<g id="environments">
	<circle fill="none" stroke="#FCFCFC" stroke-width="1.5" stroke-miterlimit="10" cx="56.439" cy="56.177" r="54"/>
	<polyline fill="none" stroke="#FCFCFC" stroke-width="1.5" stroke-miterlimit="10" points="66.504,77.608 57.196,82.983 
		35.766,70.611 35.766,45.864 57.196,33.491 78.625,45.864 78.625,62.899 	"/>
	<polyline fill="none" stroke="#FCFCFC" stroke-width="1.5" stroke-miterlimit="10" points="37.733,79.169 29.336,74.322 
		29.336,64.999 	"/>
	<polyline fill="none" stroke="#FCFCFC" stroke-width="1.5" stroke-miterlimit="10" points="46.48,32.255 57.196,26.068 
		68.264,32.458 	"/>
	<polyline fill="none" stroke="#FCFCFC" stroke-width="1.5" stroke-miterlimit="10" points="35.766,45.864 57.196,58.237 
		57.196,77.488 	"/>
	<path fill="none" stroke="#FCFCFC" stroke-width="1.5" stroke-miterlimit="10" d="M69.903,70.248"/>
	<path fill="none" stroke="#FCFCFC" stroke-width="1.5" stroke-miterlimit="10" d="M69.903,50.996"/>
	<path fill="none" stroke="#FCFCFC" stroke-width="1.5" stroke-miterlimit="10" d="M48.471,38.624"/>
	<line fill="none" stroke="#FCFCFC" stroke-width="1.5" stroke-miterlimit="10" x1="57.196" y1="58.237" x2="71.162" y2="49.716"/>
	<circle fill="none" stroke="#49B6D3" stroke-width="1.5" stroke-miterlimit="10" cx="71.977" cy="69.686" r="9.391"/>
	<path fill="none" stroke="#49B6D3" stroke-width="1.5" stroke-miterlimit="10" d="M68.323,64.19c1.972-1.311,4.393-1.423,6.4-0.51"
		/>
	
		<rect x="79.246" y="78.236" transform="matrix(-0.8329 0.5535 -0.5535 -0.8329 192.844 106.3455)" fill="none" stroke="#49B6D3" stroke-width="1.5" stroke-miterlimit="10" width="2.237" height="8.11"/>
	<rect id="_x3C_Slice_x3E__4_" x="-24.527" y="-22.002" fill="none" width="157.193" height="156"/>
</g>
<g id="form" display="none">
	
		<circle display="inline" fill="none" stroke="#FCFCFC" stroke-width="1.5" stroke-miterlimit="10" cx="56.681" cy="56.177" r="54"/>
	<path display="inline" fill="none" stroke="#FCFCFC" stroke-width="1.5" stroke-miterlimit="10" d="M86.144,72.979
		c0,1.236-1.002,2.24-2.24,2.24H29.458c-1.236,0-2.24-1.004-2.24-2.24V33.212c0-1.238,1.004-2.24,2.24-2.24h54.445
		c1.238,0,2.24,1.002,2.24,2.24V72.979z"/>
	
		<rect x="27.218" y="35.899" display="inline" fill="none" stroke="#FCFCFC" stroke-width="1.5" stroke-miterlimit="10" width="58.926" height="33.383"/>
	
		<line display="inline" fill="none" stroke="#49B6D3" stroke-width="1.5" stroke-miterlimit="10" x1="53.113" y1="41.276" x2="76.659" y2="41.276"/>
	
		<line display="inline" fill="none" stroke="#49B6D3" stroke-width="1.5" stroke-miterlimit="10" x1="53.113" y1="47.325" x2="76.659" y2="47.325"/>
	
		<line display="inline" fill="none" stroke="#49B6D3" stroke-width="1.5" stroke-miterlimit="10" x1="38.293" y1="54.048" x2="76.659" y2="54.048"/>
	
		<line display="inline" fill="none" stroke="#49B6D3" stroke-width="1.5" stroke-miterlimit="10" x1="38.156" y1="59.425" x2="76.659" y2="59.425"/>
	
		<rect x="38.777" y="40.155" display="inline" fill="none" stroke="#49B6D3" stroke-width="1.5" stroke-miterlimit="10" width="10.979" height="9.748"/>
	<circle display="inline" fill="#49B6D3" cx="80.389" cy="72.232" r="1.157"/>
	
		<circle display="inline" fill="none" stroke="#FCFCFC" stroke-width="1.5" stroke-miterlimit="10" cx="44.267" cy="43.89" r="1.27"/>
	<path display="inline" fill="none" stroke="#FCFCFC" stroke-width="1.5" stroke-miterlimit="10" d="M41.765,47.661
		c0-1.381,1.12-2.502,2.502-2.502s2.502,1.121,2.502,2.502"/>
	<path display="inline" fill="#49B6D3" d="M50.142,64.019c0,0.68-0.551,1.232-1.232,1.232h-9.375c-0.682,0-1.232-0.553-1.232-1.232
		l0,0c0-0.682,0.551-1.232,1.232-1.232h9.375C49.591,62.786,50.142,63.337,50.142,64.019L50.142,64.019z"/>
	<path display="inline" fill="none" stroke="#FCFCFC" stroke-width="1.5" stroke-miterlimit="10" d="M45.752,81.382
		c0-3.465,4.893-6.273,10.929-6.273c6.035,0,10.929,2.809,10.929,6.273"/>
	<rect id="_x3C_Slice_x3E__5_" x="-20.333" y="-22.002" display="inline" fill="none" width="157.193" height="156"/>
</g>
<g id="analytics" display="none">
	
		<circle display="inline" fill="none" stroke="#FCFCFC" stroke-width="1.5" stroke-miterlimit="10" cx="56.761" cy="55.545" r="54"/>
	<path display="inline" fill="none" stroke="#FCFCFC" stroke-width="1.5" stroke-miterlimit="10" d="M84.187,75.63
		c0,1.453-1.18,2.633-2.633,2.633H69.448c-1.453,0-2.631-1.18-2.631-2.633V35.461c0-1.456,1.178-2.634,2.631-2.634h12.106
		c1.453,0,2.633,1.178,2.633,2.634V75.63z"/>
	<path display="inline" fill="none" stroke="#FCFCFC" stroke-width="1.5" stroke-miterlimit="10" d="M66.757,75.63
		c0,1.453-1.18,2.633-2.633,2.633H52.019c-1.453,0-2.633-1.18-2.633-2.633V50.393c0-1.456,1.18-2.633,2.633-2.633h12.105
		c1.453,0,2.633,1.177,2.633,2.633V75.63z"/>
	<path display="inline" fill="none" stroke="#49B6D3" stroke-width="1.5" stroke-miterlimit="10" d="M46.705,75.63
		c0,1.453-1.179,2.633-2.633,2.633H31.966c-1.454,0-2.632-1.18-2.632-2.633V50.393c0-1.456,1.178-2.633,2.632-2.633h12.105
		c1.454,0,2.633,1.177,2.633,2.633V75.63z"/>
	<rect id="_x3C_Slice_x3E__6_" x="-20.333" y="-21.002" display="inline" fill="none" width="157.193" height="156"/>
</g>
</svg>
